<?xml version="1.0" standalone="no"?>
<!DOCTYPE svg PUBLIC "-//W3C//DTD SVG 20010904//EN"
 "http://www.w3.org/TR/2001/REC-SVG-20010904/DTD/svg10.dtd">
<svg version="1.0" xmlns="http://www.w3.org/2000/svg"
 width="1280.000000pt" height="853.000000pt" viewBox="0 0 1280.000000 853.000000"
 preserveAspectRatio="xMidYMid meet">
<metadata>
Created by potrace 1.15, written by Peter Selinger 2001-2017
</metadata>
<g transform="translate(0.000000,853.000000) scale(0.100000,-0.100000)"
fill="green" stroke="none">
<path d="M6860 7661 c-41 -17 -97 -38 -125 -48 -30 -10 -78 -42 -120 -78 -99
-86 -103 -88 -140 -59 -57 43 -102 55 -214 59 -94 2 -117 7 -201 39 -244 95
-226 90 -276 76 -25 -7 -74 -30 -109 -51 -73 -45 -90 -46 -177 -19 -109 34
-245 22 -358 -32 -49 -24 -134 -93 -250 -202 -147 -138 -506 -437 -559 -465
-14 -8 -78 -9 -203 -5 -248 9 -446 -20 -578 -86 -69 -35 -295 -127 -333 -136
-29 -7 -50 -2 -242 53 -153 45 -250 84 -339 135 -104 61 -141 91 -325 268
-217 209 -286 255 -442 294 -77 19 -365 40 -427 31 -64 -9 -149 -41 -202 -75
-34 -22 -57 -49 -91 -107 -25 -43 -51 -91 -57 -106 -15 -34 -16 -121 -2 -147
12 -23 -4 -276 -25 -395 -12 -65 -20 -85 -43 -105 -37 -32 -112 -182 -147
-290 -54 -169 -86 -253 -111 -295 -14 -24 -27 -66 -30 -96 -4 -30 -17 -90 -31
-134 -30 -100 -44 -283 -37 -485 5 -126 3 -156 -15 -230 -12 -47 -24 -121 -27
-165 -6 -81 -8 -86 -105 -292 -81 -170 -93 -257 -60 -418 l19 -90 -43 -65
c-57 -88 -90 -166 -119 -285 -60 -241 -65 -329 -30 -515 15 -79 99 -274 156
-362 44 -70 157 -163 252 -209 71 -35 88 -39 155 -39 42 0 124 5 183 11 129
14 143 7 169 -75 26 -82 63 -134 112 -156 74 -33 548 -87 677 -76 104 9 556
130 585 157 5 5 16 9 25 9 17 0 90 -69 90 -86 0 -23 65 -96 107 -121 l45 -26
201 6 c261 7 433 43 539 112 26 18 82 34 190 55 84 16 185 39 223 49 160 44
227 51 504 51 315 0 508 -17 665 -59 144 -38 348 -81 387 -81 21 0 38 -9 55
-29 32 -39 153 -104 250 -136 l78 -26 29 22 c32 23 37 21 52 -24 9 -30 16 -34
120 -65 142 -42 288 -75 445 -101 264 -43 569 -83 670 -88 102 -5 107 -4 160
24 68 36 193 127 282 206 39 34 72 56 79 51 6 -4 27 -24 46 -45 20 -22 52 -44
74 -50 36 -11 39 -15 44 -58 10 -78 15 -92 39 -116 39 -38 90 -46 263 -39 212
8 244 17 340 103 43 38 92 90 108 115 46 70 55 61 55 -48 0 -91 1 -95 28 -116
26 -21 33 -22 177 -16 212 8 353 25 395 48 20 10 47 36 60 56 14 20 46 60 71
87 26 28 49 59 53 71 3 11 18 27 32 34 13 8 36 35 51 61 17 33 35 51 56 58 52
19 74 13 117 -30 40 -40 44 -41 96 -22 6 2 16 -14 22 -35 11 -35 19 -42 90
-75 43 -21 92 -37 109 -37 40 0 223 73 288 115 64 41 78 58 116 136 17 35 36
67 43 71 20 14 54 8 91 -13 29 -17 52 -22 110 -21 65 0 85 6 160 41 111 52
201 106 243 145 33 31 33 31 31 119 -2 84 0 89 27 118 16 16 38 56 49 87 22
64 45 76 76 43 11 -12 25 -22 32 -22 7 -1 17 -2 22 -4 6 -1 17 -3 26 -3 9 -1
19 -12 22 -23 5 -19 10 -21 44 -14 52 11 89 10 144 -2 33 -7 53 -7 67 1 11 6
81 66 156 134 l137 123 -7 49 c-5 41 -3 51 16 70 16 16 31 21 57 18 40 -5 66
19 188 172 67 85 74 98 69 127 -7 36 15 63 75 95 36 20 61 69 61 121 0 22 8
41 21 53 12 10 30 38 41 61 17 39 17 45 3 79 -19 47 -19 68 1 85 15 12 16 37
11 214 -5 208 -24 358 -59 478 -24 78 -78 146 -142 179 -22 11 -62 39 -87 62
-69 62 -142 117 -212 158 -185 109 -183 108 -240 108 -30 0 -154 16 -277 35
-123 19 -300 39 -399 45 -97 6 -251 15 -343 20 -91 6 -211 10 -266 10 -123 0
-389 38 -599 85 -87 20 -203 43 -258 51 -55 8 -116 19 -136 24 -19 6 -72 16
-116 24 -124 21 -143 34 -185 120 -20 41 -51 90 -68 109 -53 61 -127 71 -184
26 -23 -18 -30 -19 -68 -8 -24 7 -106 13 -183 15 -77 1 -153 7 -168 13 -43 17
-96 78 -103 120 -15 82 -52 118 -154 147 -65 19 -145 58 -156 76 -4 7 -11 37
-15 66 -6 39 -15 63 -35 83 -59 61 -197 58 -262 -7 -20 -20 -35 -28 -37 -21
-53 161 -62 227 -40 291 28 82 23 142 -18 211 -20 33 -44 70 -54 82 -27 32
-111 73 -152 73 -34 0 -37 3 -49 41 -7 23 -32 69 -55 103 -71 103 -70 100 -42
165 13 33 26 87 29 128 5 62 3 76 -20 119 -40 75 -71 103 -174 153 -85 41
-103 46 -175 48 -69 2 -91 -1 -155 -26z m263 -173 c32 -23 63 -87 73 -149 6
-38 4 -42 -58 -107 -35 -37 -74 -83 -85 -102 -18 -29 -50 -50 -189 -120 -92
-47 -192 -100 -222 -117 -30 -18 -60 -33 -66 -33 -7 0 -17 -5 -24 -12 -20 -20
-14 5 17 68 50 102 63 200 45 340 l-6 51 73 63 c102 88 171 117 339 144 37 6
70 -3 103 -26z m-1053 -74 c36 -9 72 -19 80 -22 8 -3 43 -7 77 -9 102 -6 148
-17 151 -35 2 -12 -12 -21 -50 -34 -72 -24 -167 -69 -199 -95 -37 -29 -76 -19
-141 37 -29 25 -77 59 -108 75 -101 57 -126 94 -67 102 57 9 191 -1 257 -19z
m386 -305 c-11 -67 -26 -75 -85 -42 -28 16 -51 31 -51 34 0 13 82 46 119 48
22 1 23 -1 17 -40z m753 -158 c30 -41 47 -129 30 -146 -8 -7 -66 -30 -129 -50
-63 -21 -127 -44 -142 -52 -24 -12 -32 -11 -58 2 -16 9 -30 17 -30 19 0 22 24
42 91 78 60 32 95 60 140 110 33 37 64 68 69 68 5 0 18 -13 29 -29z m-9 -368
c0 -18 -34 -93 -42 -93 -4 0 -14 12 -20 26 -11 23 -9 28 18 49 30 25 44 31 44
18z"/>
</g>
</svg>
